<svg width="55" height="55" viewBox="0 0 55 55" fill="none" xmlns="http://www.w3.org/2000/svg">
<mask id="mask0" mask-type="alpha" maskUnits="userSpaceOnUse" x="0" y="0" width="55" height="55">
<path fill-rule="evenodd" clip-rule="evenodd" d="M27.5 1.3113e-06C12.3122 1.3113e-06 1.3113e-06 12.3122 1.3113e-06 27.5C1.3113e-06 42.6878 12.3122 55 27.5 55C42.6878 55 55 42.6878 55 27.5C55 12.3122 42.6878 1.3113e-06 27.5 1.3113e-06Z" fill="white"/>
</mask>
<g mask="url(#mask0)">
<path opacity="0.65332" fill-rule="evenodd" clip-rule="evenodd" d="M193.474 118.21C180.889 117.795 163.211 122.427 152.972 112.699C150.239 110.103 148.475 106.661 147.297 103.114C142.634 89.0718 146.639 73.731 144.433 59.1347C143.342 51.9153 140.369 44.473 134.237 40.3387C130.305 37.6869 124.671 36.8828 120.241 38.6911C114.809 40.9078 113.46 46.0696 106.976 41.8249C100.386 37.51 88.9936 24.5267 80.9836 33.9404C79.3123 35.9048 77.218 38.3659 76.1888 34.4315C74.9334 29.6237 67.9314 28.9337 64.2056 31.0437C59.52 33.6982 55.8067 38.0691 51.1714 40.9789C50.5041 41.3978 49.8153 41.8127 49.0443 41.9978C43.0573 43.431 35.5555 32.8669 32.1716 29.1143C29.3361 25.9707 25.5878 21.9936 21.6987 20.2266C11.1375 15.429 3.98433 30.9671 -0.613771 37.6533C-9.35158 50.3597 -23.2108 65.6628 -39.9339 66.0887C-53.9915 66.4459 -63.5482 64.1687 -77.4074 68.5155C-89.9091 72.435 -98.1251 80.3577 -107.556 89.4999C-120.015 101.579 -137.119 133.829 -118.963 199.74L193.474 118.21Z" fill="url(#paint0_linear)"/>
<path opacity="0.65332" fill-rule="evenodd" clip-rule="evenodd" d="M176.86 123.251C164.275 122.836 146.596 127.468 136.357 117.739C133.625 115.144 131.86 111.701 130.682 108.154C126.019 94.1126 130.025 78.7718 127.819 64.1755C126.727 56.9561 123.755 49.5137 117.623 45.3795C113.691 42.7276 108.056 41.9236 103.626 43.7319C98.1948 45.9485 96.8456 51.1104 90.3615 46.8657C83.7709 42.5507 72.3789 29.5674 64.369 38.9812C62.6977 40.9456 60.6034 43.4067 59.5742 39.4722C58.3187 34.6644 51.3168 33.9745 47.591 36.0844C42.9053 38.739 39.192 43.1099 34.5568 46.0196C33.8895 46.4385 33.2006 46.8535 32.4296 47.0386C26.4427 48.4718 18.9409 37.9077 15.557 34.1551C12.7215 31.0115 8.97315 27.0344 5.08402 25.2673C-5.47719 20.4697 -12.6303 36.0078 -17.2284 42.6941C-25.9662 55.4005 -39.8255 70.7036 -56.5486 71.1295C-70.6061 71.4866 -80.1628 69.2095 -94.022 73.5563C-106.524 77.4758 -114.74 85.3985 -124.171 94.5407C-136.63 106.62 -153.734 138.87 -135.578 204.781L176.86 123.251Z" fill="url(#paint1_linear)"/>
<path opacity="0.65332" fill-rule="evenodd" clip-rule="evenodd" d="M193.474 103.711C180.889 103.296 163.211 107.928 152.972 98.1997C150.239 95.6038 148.475 92.1616 147.297 88.6146C142.634 74.5728 146.639 59.232 144.433 44.6357C143.342 37.4163 140.369 29.9739 134.237 25.8397C130.305 23.1878 124.671 22.3838 120.241 24.1921C114.809 26.4087 113.46 31.5706 106.976 27.3259C100.386 23.0109 88.9936 10.0277 80.9836 19.4414C79.3123 21.4058 77.218 23.8669 76.1888 19.9324C74.9334 15.1246 67.9314 14.4347 64.2056 16.5446C59.52 19.1992 59.6353 24.8139 55 27.7237C54.3327 28.1426 49.8153 27.3137 49.0442 27.4988C42.4286 26.1522 35.5555 18.3679 32.1716 14.6153C29.3361 11.4717 25.5878 7.49462 21.6987 5.72753C11.1375 0.92993 3.98434 16.468 -0.613764 23.1543C-9.35157 35.8607 -23.2108 51.1638 -39.9339 51.5897C-53.9915 51.9468 -63.5482 49.6697 -77.4074 54.0165C-89.9091 57.936 -98.1251 65.8587 -107.556 75.0009C-120.015 87.0798 -137.119 119.33 -118.963 185.241L193.474 103.711Z" fill="url(#paint2_linear)"/>
<path opacity="0.65332" fill-rule="evenodd" clip-rule="evenodd" d="M218.035 118.21C205.449 117.795 187.771 122.427 177.532 112.699C174.8 110.103 173.035 106.661 171.857 103.114C167.194 89.0718 171.2 73.731 168.993 59.1347C167.902 51.9153 164.93 44.473 158.797 40.3387C154.866 37.6869 149.231 36.8828 144.801 38.6911C139.37 40.9078 138.02 46.0696 131.536 41.8249C124.946 37.51 113.554 24.5267 105.544 33.9404C103.872 35.9048 101.778 38.3659 100.749 34.4314C99.4935 29.6237 92.4916 28.9337 88.7657 31.0437C84.0801 33.6982 80.3668 38.0691 75.7316 40.9789C75.0643 41.3978 74.3754 41.8127 73.6044 41.9979C67.6174 43.431 60.1157 32.8669 56.7318 29.1143C53.8963 25.9707 50.1479 21.9936 46.2588 20.2266C35.6976 15.429 28.5445 30.9671 23.9464 37.6533C15.2086 50.3597 1.34931 65.6628 -15.3738 66.0887C-29.4313 66.4459 -38.988 64.1687 -52.8472 68.5155C-65.349 72.435 -73.565 80.3577 -82.9958 89.4999C-95.4547 101.579 -112.559 133.829 -94.4029 199.74L218.035 118.21Z" fill="url(#paint3_linear)"/>
</g>
<defs>
<linearGradient id="paint0_linear" x1="88.3471" y1="-12.7132" x2="99.6834" y2="40.792" gradientUnits="userSpaceOnUse">
<stop stop-color="#FF9B00"/>
<stop offset="1" stop-color="#FF002A" stop-opacity="0.428867"/>
</linearGradient>
<linearGradient id="paint1_linear" x1="71.7325" y1="-7.67241" x2="83.0688" y2="45.8327" gradientUnits="userSpaceOnUse">
<stop stop-color="#FF9B00"/>
<stop offset="1" stop-color="#FF002A" stop-opacity="0.428867"/>
</linearGradient>
<linearGradient id="paint2_linear" x1="88.3471" y1="-27.2122" x2="99.6834" y2="26.2929" gradientUnits="userSpaceOnUse">
<stop stop-color="#FF9B00"/>
<stop offset="1" stop-color="#FF002A" stop-opacity="0.428867"/>
</linearGradient>
<linearGradient id="paint3_linear" x1="112.907" y1="-12.7132" x2="124.244" y2="40.792" gradientUnits="userSpaceOnUse">
<stop stop-color="#FF9B00"/>
<stop offset="1" stop-color="#FF002A" stop-opacity="0.428867"/>
</linearGradient>
</defs>
</svg>
