<svg version="1" xmlns="http://www.w3.org/2000/svg" width="933.333" height="933.333" viewBox="0 0 700.000000 700.000000"><path d="M321 1.1C187.3 12.5 72.7 98.1 23.6 223.2 1 280.9-5.6 347 5.1 410c20.3 119.7 104.4 222.3 218.4 266.3 96.9 37.5 205 30.2 295.5-19.7 80.8-44.6 142.3-121.7 167.5-209.9C728.2 300.6 671.7 145.2 546 60.1 495.4 25.8 439.6 6.3 377.5 1c-13.8-1.1-42.6-1.1-56.5.1zm-46 286.4l43.5 77.4.3-24.9.2-25h75.5c82.1 0 79.2.2 84.7-5.6 8.1-8.7 5.9-21.4-4.7-27.2-2.7-1.5-10.8-1.8-79.4-2.2l-76.4-.5-16.4-29.5c-9-16.2-17.7-31.9-19.4-34.8l-3-5.3 104.3.4c94.6.3 104.9.4 110.8 2 32.9 8.7 57.6 32.7 66.1 64.2 3.1 11.4 3.1 30.7.1 42.1-9.3 34.7-37.1 59.9-72.2 65.3-4.1.7-7.5 1.3-7.7 1.4-.1.2 14.4 23.6 32.2 52.2 17.9 28.5 32.5 52 32.5 52.2 0 .1-21.3.3-47.4.3h-47.4l-30.8-51.7-30.9-51.8-.3 51.8-.2 51.7h-87.6L258 412.6l-43.5-77.3-.3 24.8-.2 24.9h-70V210h87.5l43.5 77.5z"/></svg>