<svg width="1054" height="740" viewBox="0 0 1054 740" fill="none" xmlns="http://www.w3.org/2000/svg">
<mask id="mask0" mask-type="alpha" maskUnits="userSpaceOnUse" x="0" y="0" width="1717" height="1717">
<path fill-rule="evenodd" clip-rule="evenodd" d="M858 8.85464e-05C1331.86 4.71202e-05 1716 384.14 1716 858C1716 1331.86 1331.86 1716 858 1716C384.14 1716 0.000210558 1331.86 0.000169132 858C0.000127706 384.14 384.14 0.000129973 858 8.85464e-05Z" fill="white"/>
</mask>
<g mask="url(#mask0)">
<path opacity="0.65332" fill-rule="evenodd" clip-rule="evenodd" d="M-4320.4 3688.15C-3927.74 3675.21 -3376.17 3819.72 -3056.72 3516.2C-2971.47 3435.21 -2916.41 3327.81 -2879.65 3217.14C-2734.17 2779.04 -2859.15 2300.41 -2790.31 1845C-2756.27 1619.75 -2663.52 1387.55 -2472.2 1258.57C-2349.53 1175.83 -2173.72 1150.74 -2035.51 1207.16C-1866.05 1276.32 -1823.96 1437.37 -1621.65 1304.93C-1416.03 1170.31 -1060.6 765.229 -810.687 1058.94C-758.541 1120.23 -693.199 1197.01 -661.088 1074.26C-621.918 924.255 -403.458 902.728 -287.212 968.559C-141.02 1051.38 -25.1655 1187.75 119.454 1278.54C140.275 1291.61 161.767 1304.55 185.822 1310.33C372.615 1355.04 606.67 1025.44 712.248 908.362C800.716 810.282 917.664 686.199 1039 631.065C1368.51 481.38 1591.69 966.169 1735.15 1174.78C2007.77 1571.22 2440.18 2048.68 2961.94 2061.96C3400.54 2073.11 3698.71 2002.06 4131.11 2137.68C4521.17 2259.97 4777.51 2507.16 5071.75 2792.39C5460.47 3169.26 5994.11 4175.46 5427.65 6231.89L-4320.4 3688.15Z" fill="url(#paint0_linear)"/>
<path opacity="0.65332" fill-rule="evenodd" clip-rule="evenodd" d="M-3802.03 3845.45C-3409.37 3832.51 -2857.8 3977.02 -2538.35 3673.5C-2453.09 3592.51 -2398.04 3485.11 -2361.28 3374.44C-2215.8 2936.34 -2340.77 2457.71 -2271.94 2002.3C-2237.89 1777.05 -2145.15 1544.85 -1953.83 1415.87C-1831.15 1333.13 -1655.35 1308.04 -1517.14 1364.46C-1347.68 1433.62 -1305.58 1594.67 -1103.28 1462.23C-897.651 1327.61 -542.222 922.529 -292.312 1216.24C-240.166 1277.53 -174.825 1354.31 -142.714 1231.56C-103.543 1081.56 114.917 1060.03 231.163 1125.86C377.354 1208.68 493.209 1345.05 637.828 1435.84C658.649 1448.91 680.141 1461.85 704.197 1467.63C890.99 1512.34 1125.04 1182.74 1230.62 1065.66C1319.09 967.582 1436.04 843.499 1557.38 788.366C1886.89 638.68 2110.07 1123.47 2253.53 1332.08C2526.15 1728.52 2958.56 2205.98 3480.32 2219.26C3918.91 2230.41 4217.08 2159.36 4649.49 2294.98C5039.54 2417.27 5295.88 2664.46 5590.12 2949.69C5978.84 3326.56 6512.49 4332.76 5946.03 6389.19L-3802.03 3845.45Z" fill="url(#paint1_linear)"/>
<path opacity="0.65332" fill-rule="evenodd" clip-rule="evenodd" d="M-4320.4 3235.77C-3927.74 3222.84 -3376.17 3367.35 -3056.72 3063.83C-2971.47 2982.83 -2916.41 2875.44 -2879.65 2764.77C-2734.17 2326.67 -2859.15 1848.03 -2790.31 1392.63C-2756.27 1167.38 -2663.52 935.182 -2472.2 806.194C-2349.53 723.456 -2173.72 698.369 -2035.51 754.787C-1866.05 823.947 -1823.96 984.998 -1621.65 852.563C-1416.03 717.936 -1060.6 312.858 -810.687 606.567C-758.541 667.855 -693.199 744.642 -661.088 621.887C-621.918 471.884 -403.458 450.357 -287.211 516.187C-141.02 599.01 -25.1656 735.382 119.454 826.166C140.274 839.236 161.767 852.181 185.822 857.958C372.615 902.673 606.67 573.072 712.248 455.991C800.716 357.911 917.664 233.827 1039 178.694C1368.51 29.0087 1591.69 513.797 1735.15 722.408C2007.77 1118.85 2440.18 1596.31 2961.94 1609.59C3400.54 1620.74 3698.71 1549.69 4131.11 1685.31C4521.17 1807.6 4777.51 2054.79 5071.75 2340.02C5460.47 2716.88 5994.11 3723.09 5427.65 5779.51L-4320.4 3235.77Z" fill="url(#paint2_linear)"/>
<path opacity="0.65332" fill-rule="evenodd" clip-rule="evenodd" d="M-5086.68 3688.15C-4694.02 3675.21 -4142.45 3819.72 -3823 3516.2C-3737.75 3435.21 -3682.69 3327.81 -3645.93 3217.14C-3500.45 2779.04 -3625.43 2300.41 -3556.59 1845C-3522.55 1619.75 -3429.8 1387.55 -3238.48 1258.57C-3115.81 1175.83 -2940 1150.74 -2801.79 1207.16C-2632.33 1276.32 -2590.24 1437.37 -2387.93 1304.93C-2182.31 1170.31 -1826.88 765.229 -1576.97 1058.94C-1524.82 1120.23 -1459.48 1197.01 -1427.37 1074.26C-1388.2 924.255 -1169.74 902.728 -1053.49 968.559C-907.301 1051.38 -791.446 1187.75 -646.827 1278.54C-626.006 1291.61 -604.514 1304.55 -580.459 1310.33C-393.666 1355.04 -159.611 1025.44 -54.0325 908.362C34.4354 810.282 151.383 686.199 272.724 631.065C602.234 481.38 825.411 966.169 968.872 1174.78C1241.49 1571.22 1673.9 2048.68 2195.66 2061.96C2634.26 2073.11 2932.43 2002.06 3364.83 2137.68C3754.89 2259.97 4011.23 2507.16 4305.47 2792.39C4694.19 3169.26 5227.83 4175.46 4661.37 6231.89L-5086.68 3688.15Z" fill="url(#paint3_linear)"/>
</g>
<defs>
<linearGradient id="paint0_linear" x1="-1040.43" y1="-396.654" x2="-1394.12" y2="1272.71" gradientUnits="userSpaceOnUse">
<stop stop-color="#FF9B00"/>
<stop offset="1" stop-color="#FF002A" stop-opacity="0.428867"/>
</linearGradient>
<linearGradient id="paint1_linear" x1="-522.053" y1="-239.354" x2="-875.745" y2="1430.01" gradientUnits="userSpaceOnUse">
<stop stop-color="#FF9B00"/>
<stop offset="1" stop-color="#FF002A" stop-opacity="0.428867"/>
</linearGradient>
<linearGradient id="paint2_linear" x1="-1040.43" y1="-849.026" x2="-1394.12" y2="820.335" gradientUnits="userSpaceOnUse">
<stop stop-color="#FF9B00"/>
<stop offset="1" stop-color="#FF002A" stop-opacity="0.428867"/>
</linearGradient>
<linearGradient id="paint3_linear" x1="-1806.71" y1="-396.654" x2="-2160.4" y2="1272.71" gradientUnits="userSpaceOnUse">
<stop stop-color="#FF9B00"/>
<stop offset="1" stop-color="#FF002A" stop-opacity="0.428867"/>
</linearGradient>
</defs>
</svg>
