<svg width="15" height="15" viewBox="0 0 15 15" fill="none" xmlns="http://www.w3.org/2000/svg">
<path d="M14.0625 7.03125V5.625C14.0625 5.10721 13.6427 4.6875 13.125 4.6875H2.8125C2.29547 4.6875 1.875 4.26703 1.875 3.75C1.875 3.23297 2.29547 2.8125 2.8125 2.8125H13.125C13.6427 2.8125 14.0625 2.39273 14.0625 1.875C14.0625 1.35727 13.6427 0.9375 13.125 0.9375H2.8125C1.26158 0.9375 0 2.19911 0 3.75V4.6875V12.1875C0 13.223 0.839531 14.0625 1.875 14.0625H13.125C13.6427 14.0625 14.0625 13.6428 14.0625 13.125V11.7188C14.5802 11.7188 15 11.299 15 10.7812V7.96875C15 7.45096 14.5802 7.03125 14.0625 7.03125ZM12.6562 10.3125C12.1385 10.3125 11.7188 9.89279 11.7188 9.375C11.7188 8.85721 12.1385 8.4375 12.6562 8.4375C13.174 8.4375 13.5938 8.85721 13.5938 9.375C13.5938 9.89279 13.174 10.3125 12.6562 10.3125Z" fill="#333333"/>
</svg>
